<svg width="14" height="14" viewBox="0 0 14 14" fill="none" xmlns="http://www.w3.org/2000/svg">
<path d="M8.16084 3.57005H8.13751C7.66501 3.57005 7.38501 4.05923 7.66501 4.41016L9.91667 7.29203L7.65917 10.1739C7.38501 10.5248 7.65917 11.014 8.13167 11.014H8.15501C8.34167 11.014 8.52251 10.9289 8.62751 10.7907L11.13 7.60042C11.2012 7.51068 11.2395 7.40277 11.2395 7.29203C11.2395 7.18129 11.2012 7.07338 11.13 6.98364L8.62751 3.79337C8.57519 3.72465 8.50545 3.66847 8.4242 3.62958C8.34295 3.5907 8.2526 3.57028 8.16084 3.57005Z" fill="white"/>
<path d="M4.66084 3.57005H4.63167C4.15917 3.57005 3.88501 4.05923 4.15917 4.41016L6.41668 7.29203L4.15917 10.1739C3.88501 10.5248 4.15917 11.014 4.63167 11.014H4.65501C4.84167 11.014 5.02251 10.9289 5.12751 10.7907L7.63001 7.60042C7.70118 7.51068 7.73949 7.40277 7.73949 7.29203C7.73949 7.18129 7.70118 7.07338 7.63001 6.98364L5.12751 3.79337C5.07519 3.72465 5.00545 3.66847 4.9242 3.62958C4.84295 3.5907 4.7526 3.57028 4.66084 3.57005Z" fill="white"/>
</svg>
