<svg width="18" height="19" viewBox="0 0 18 19" fill="none" xmlns="http://www.w3.org/2000/svg">
<path d="M3.78947 15.3058C5.87937 15.3058 7.57895 13.6489 7.57895 11.6116V2.24214L16.1053 5.264V12.126C15.532 11.793 14.8778 11.6154 14.2105 11.6116C12.1206 11.6116 10.4211 13.2684 10.4211 15.3058C10.4211 17.3431 12.1206 19 14.2105 19C16.3004 19 18 17.3431 18 15.3058V4.61751C18.0001 4.42803 17.9404 4.2431 17.8288 4.08792C17.7173 3.93275 17.5594 3.81485 17.3766 3.7503L6.95558 0.056087C6.81252 0.00510407 6.65895 -0.0114646 6.50792 0.00778849C6.35689 0.0270416 6.21285 0.0815475 6.08805 0.166676C5.96325 0.251805 5.86137 0.365041 5.79106 0.496767C5.72075 0.628492 5.6841 0.774813 5.68421 0.923303V8.43179C5.11093 8.09881 4.45679 7.92121 3.78947 7.91737C1.69958 7.91737 0 9.57422 0 11.6116C0 13.6489 1.69958 15.3058 3.78947 15.3058Z" fill="white"/>
</svg>
