<svg width="30" height="30" viewBox="0 0 30 30" fill="none" xmlns="http://www.w3.org/2000/svg">
<path d="M20 5H5V7.5H12.5H20V5ZM20 10H5V12.5H20V10ZM5 17.5H15V15H5V17.5Z" fill="white"/>
<path d="M18.3553 21.8057C19.5163 21.8057 20.4605 20.9337 20.4605 19.8614V14.9301L25.1974 16.5205V20.1321C24.8789 19.9569 24.5155 19.8634 24.1447 19.8614C22.9837 19.8614 22.0395 20.7334 22.0395 21.8057C22.0395 22.878 22.9837 23.75 24.1447 23.75C25.3058 23.75 26.25 22.878 26.25 21.8057V16.1803C26.2501 16.0805 26.2169 15.9832 26.1549 15.9015C26.0929 15.8199 26.0052 15.7578 25.9037 15.7238L20.1142 13.7795C20.0347 13.7527 19.9494 13.744 19.8655 13.7541C19.7816 13.7642 19.7016 13.7929 19.6323 13.8377C19.5629 13.8825 19.5063 13.9421 19.4673 14.0115C19.4282 14.0808 19.4078 14.1578 19.4079 14.2359V18.1878C19.0894 18.0125 18.726 17.9191 18.3553 17.917C17.1942 17.917 16.25 18.7891 16.25 19.8614C16.25 20.9337 17.1942 21.8057 18.3553 21.8057Z" fill="white"/>
</svg>
